<?xml version="1.0" encoding="UTF-8" standalone="no"?>
<!-- Created with Inkscape (http://www.inkscape.org/) -->

<svg
   xmlns:dc="http://purl.org/dc/elements/1.1/"
   xmlns:cc="http://creativecommons.org/ns#"
   xmlns:rdf="http://www.w3.org/1999/02/22-rdf-syntax-ns#"
   xmlns:svg="http://www.w3.org/2000/svg"
   xmlns="http://www.w3.org/2000/svg"
   xmlns:xlink="http://www.w3.org/1999/xlink"
   xmlns:sodipodi="http://sodipodi.sourceforge.net/DTD/sodipodi-0.dtd"
   xmlns:inkscape="http://www.inkscape.org/namespaces/inkscape"
   width="512"
   height="476"
   id="svg3336"
   version="1.1"
   inkscape:version="0.48.3.1 r9886"
   sodipodi:docname="app_media-player_512x476px_squared.svg"
   inkscape:export-filename="PNG/app_media-player_512x476px_squared.png"
   inkscape:export-xdpi="90"
   inkscape:export-ydpi="90">
  <defs
     id="defs3338">
    <linearGradient
       inkscape:collect="always"
       id="linearGradient4278">
      <stop
         style="stop-color:#000000;stop-opacity:1;"
         offset="0"
         id="stop4280" />
      <stop
         style="stop-color:#000000;stop-opacity:0;"
         offset="1"
         id="stop4282" />
    </linearGradient>
    <linearGradient
       inkscape:collect="always"
       id="linearGradient4267">
      <stop
         style="stop-color:#ffffff;stop-opacity:1;"
         offset="0"
         id="stop4269" />
      <stop
         style="stop-color:#ffffff;stop-opacity:0;"
         offset="1"
         id="stop4271" />
    </linearGradient>
    <linearGradient
       id="linearGradient4113">
      <stop
         style="stop-color:#61327c;stop-opacity:1;"
         offset="0"
         id="stop4115" />
      <stop
         style="stop-color:#000000;stop-opacity:1;"
         offset="1"
         id="stop4117" />
    </linearGradient>
    <linearGradient
       id="linearGradient4021">
      <stop
         style="stop-color:#e05511;stop-opacity:1;"
         offset="0"
         id="stop4023" />
      <stop
         style="stop-color:#f57638;stop-opacity:1;"
         offset="1"
         id="stop4025" />
    </linearGradient>
    <linearGradient
       id="linearGradient3982">
      <stop
         style="stop-color:#f5f5f5;stop-opacity:1;"
         offset="0"
         id="stop3984" />
      <stop
         id="stop3992"
         offset="0.75"
         style="stop-color:#dfdfdf;stop-opacity:1;" />
      <stop
         style="stop-color:#c6c6c6;stop-opacity:1;"
         offset="1"
         id="stop3986" />
    </linearGradient>
    <linearGradient
       inkscape:collect="always"
       id="linearGradient3972">
      <stop
         style="stop-color:#666666;stop-opacity:1;"
         offset="0"
         id="stop3974" />
      <stop
         style="stop-color:#666666;stop-opacity:0;"
         offset="1"
         id="stop3976" />
    </linearGradient>
    <linearGradient
       id="linearGradient3797">
      <stop
         style="stop-color:#1c1c1c;stop-opacity:1;"
         offset="0"
         id="stop3799" />
      <stop
         style="stop-color:#3c3c3c;stop-opacity:1;"
         offset="1"
         id="stop3801" />
    </linearGradient>
    <linearGradient
       inkscape:collect="always"
       xlink:href="#linearGradient3972"
       id="linearGradient3978"
       x1="302.38541"
       y1="429.79349"
       x2="302.38541"
       y2="412.49652"
       gradientUnits="userSpaceOnUse" />
    <radialGradient
       inkscape:collect="always"
       xlink:href="#linearGradient3982"
       id="radialGradient3990"
       cx="212"
       cy="421.89999"
       fx="212"
       fy="421.89999"
       r="9"
       gradientUnits="userSpaceOnUse"
       gradientTransform="matrix(1.333334,0,0,1.222221,-70.666804,-93.655031)" />
    <filter
       inkscape:collect="always"
       id="filter4013">
      <feGaussianBlur
         inkscape:collect="always"
         stdDeviation="0.72"
         id="feGaussianBlur4015" />
    </filter>
    <linearGradient
       inkscape:collect="always"
       xlink:href="#linearGradient4021"
       id="linearGradient4027"
       x1="98.949677"
       y1="420.01477"
       x2="98.949677"
       y2="429.99384"
       gradientUnits="userSpaceOnUse" />
    <filter
       color-interpolation-filters="sRGB"
       inkscape:collect="always"
       id="filter4050-1"
       x="-0.23999999"
       width="1.48"
       y="-0.23999999"
       height="1.48">
      <feGaussianBlur
         inkscape:collect="always"
         stdDeviation="22.6"
         id="feGaussianBlur4052-1" />
    </filter>
    <linearGradient
       inkscape:collect="always"
       xlink:href="#linearGradient4113"
       id="linearGradient4119"
       x1="268.6976"
       y1="476"
       x2="268.6976"
       y2="0"
       gradientUnits="userSpaceOnUse" />
    <filter
       inkscape:collect="always"
       id="filter4138"
       x="-0.26983832"
       width="1.5396766"
       y="-0.54064787"
       height="2.0812957">
      <feGaussianBlur
         inkscape:collect="always"
         stdDeviation="71.690802"
         id="feGaussianBlur4140" />
    </filter>
    <filter
       inkscape:collect="always"
       id="filter4156"
       x="-0.49605127"
       width="1.9921025"
       y="-0.75906359"
       height="2.5181272">
      <feGaussianBlur
         inkscape:collect="always"
         stdDeviation="76.055568"
         id="feGaussianBlur4158" />
    </filter>
    <clipPath
       clipPathUnits="userSpaceOnUse"
       id="clipPath4213">
      <g
         style="fill:#000000;display:inline"
         inkscape:label="Layer 1"
         id="g4215"
         transform="matrix(3.5555556,0,0,3.5522388,0,-3262.2418)">
        <g
           transform="translate(0,9.99998)"
           id="g4217"
           inkscape:label="Layer 1"
           style="fill:#000000">
          <path
             style="fill:#000000;fill-opacity:1;stroke:none;display:inline"
             d="m 46.702703,908.3622 50.594594,0 C 138.16216,908.3622 144,914.2 144,955.06487 l 0,40.59483 c 0,40.8647 -5.83784,46.7025 -46.702703,46.7025 l -50.594594,0 C 5.8378378,1042.3622 0,1036.5244 0,995.6597 L 0,955.06487 C 0,914.2 5.8378378,908.3622 46.702703,908.3622 z"
             id="path4219"
             inkscape:connector-curvature="0"
             sodipodi:nodetypes="sssssssss" />
        </g>
      </g>
    </clipPath>
    <filter
       inkscape:collect="always"
       id="filter4245">
      <feGaussianBlur
         inkscape:collect="always"
         stdDeviation="2.26"
         id="feGaussianBlur4247" />
    </filter>
    <filter
       inkscape:collect="always"
       id="filter4261">
      <feGaussianBlur
         inkscape:collect="always"
         stdDeviation="3.39"
         id="feGaussianBlur4263" />
    </filter>
    <linearGradient
       inkscape:collect="always"
       xlink:href="#linearGradient4267"
       id="linearGradient4273"
       x1="345.23428"
       y1="-74.619431"
       x2="345.23428"
       y2="392.97086"
       gradientUnits="userSpaceOnUse" />
    <linearGradient
       inkscape:collect="always"
       xlink:href="#linearGradient4278"
       id="linearGradient4284"
       x1="235.48021"
       y1="371.87079"
       x2="235.48021"
       y2="387.52194"
       gradientUnits="userSpaceOnUse" />
    <linearGradient
       inkscape:collect="always"
       xlink:href="#linearGradient4267"
       id="linearGradient4288"
       gradientUnits="userSpaceOnUse"
       x1="302.38541"
       y1="429.79349"
       x2="302.38541"
       y2="412.49652" />
    <linearGradient
       inkscape:collect="always"
       xlink:href="#linearGradient3972"
       id="linearGradient4292"
       gradientUnits="userSpaceOnUse"
       x1="302.38541"
       y1="429.79349"
       x2="302.38541"
       y2="412.49652"
       gradientTransform="translate(0,1)" />
    <linearGradient
       inkscape:collect="always"
       xlink:href="#linearGradient3972"
       id="linearGradient4296"
       gradientUnits="userSpaceOnUse"
       x1="302.38541"
       y1="429.79349"
       x2="302.38541"
       y2="412.49652" />
    <linearGradient
       id="linearGradient3382">
      <stop
         id="stop3384"
         offset="0"
         style="stop-color:#b5b5b5;stop-opacity:1" />
      <stop
         id="stop3386"
         offset="1"
         style="stop-color:#dbdbdb;stop-opacity:1" />
    </linearGradient>
    <linearGradient
       id="linearGradient3992-5">
      <stop
         id="stop3994-3"
         offset="0"
         style="stop-color:#b5b5b5;stop-opacity:1" />
      <stop
         id="stop3996-0"
         offset="1"
         style="stop-color:#dbdbdb;stop-opacity:1" />
    </linearGradient>
    <linearGradient
       id="linearGradient3992">
      <stop
         id="stop3994"
         offset="0"
         style="stop-color:#b5b5b5;stop-opacity:1" />
      <stop
         id="stop3996"
         offset="1"
         style="stop-color:#dbdbdb;stop-opacity:1" />
    </linearGradient>
    <linearGradient
       inkscape:collect="always"
       xlink:href="#linearGradient4113"
       id="linearGradient4356"
       gradientUnits="userSpaceOnUse"
       x1="268.6976"
       y1="476"
       x2="268.6976"
       y2="0" />
    <filter
       inkscape:collect="always"
       id="filter4412"
       x="-0.12126875"
       width="1.2425375"
       y="-0.34904458"
       height="1.6980892">
      <feGaussianBlur
         inkscape:collect="always"
         stdDeviation="36.352433"
         id="feGaussianBlur4414" />
    </filter>
    <linearGradient
       inkscape:collect="always"
       xlink:href="#linearGradient4267"
       id="linearGradient4419"
       gradientUnits="userSpaceOnUse"
       x1="345.23428"
       y1="-74.619431"
       x2="345.23428"
       y2="476" />
    <clipPath
       clipPathUnits="userSpaceOnUse"
       id="clipPath4423">
      <rect
         style="opacity:0.3;color:#000000;fill:#ff80e5;fill-opacity:1;fill-rule:nonzero;stroke:none;stroke-width:4;marker:none;visibility:visible;display:inline;overflow:visible;enable-background:accumulate"
         id="rect4425"
         width="512"
         height="476"
         x="0"
         y="0" />
    </clipPath>
  </defs>
  <sodipodi:namedview
     id="base"
     pagecolor="#ffffff"
     bordercolor="#666666"
     borderopacity="1.0"
     inkscape:pageopacity="0.0"
     inkscape:pageshadow="2"
     inkscape:zoom="0.546875"
     inkscape:cx="169.71427"
     inkscape:cy="386.10286"
     inkscape:document-units="px"
     inkscape:current-layer="layer3"
     showgrid="false"
     inkscape:window-width="1920"
     inkscape:window-height="1029"
     inkscape:window-x="0"
     inkscape:window-y="24"
     inkscape:window-maximized="1"
     inkscape:snap-page="true">
    <inkscape:grid
       type="xygrid"
       id="grid3805" />
  </sodipodi:namedview>
  <metadata
     id="metadata3341">
    <rdf:RDF>
      <cc:Work
         rdf:about="">
        <dc:format>image/svg+xml</dc:format>
        <dc:type
           rdf:resource="http://purl.org/dc/dcmitype/StillImage" />
        <dc:title></dc:title>
      </cc:Work>
    </rdf:RDF>
  </metadata>
  <g
     inkscape:groupmode="layer"
     id="layer2"
     inkscape:label="Icon"
     sodipodi:insensitive="true">
    <g
       id="g4371"
       clip-path="url(#clipPath4423)">
      <rect
         clip-path="none"
         y="0"
         x="0"
         height="476"
         width="512"
         id="rect3027"
         style="color:#000000;fill:url(#linearGradient4356);fill-opacity:1;fill-rule:nonzero;stroke:none;stroke-width:4;marker:none;visibility:visible;display:inline;overflow:visible;enable-background:accumulate" />
      <path
         inkscape:connector-curvature="0"
         id="path4121"
         d="M 266.82514,-53.905371 C 149.33847,-2.6946283 31.782196,56.145819 -71.305431,131.47491 -129.8034,273.90553 56.98126,197.41765 105.0089,138.20133 220.43411,63.212264 247.73569,257.19392 355.74886,256.69104 425.86283,246.91901 572.77528,224.31979 553.34635,125.80239 501.40576,32.033501 420.03161,-74.304978 298.90686,-60.302467 l -16.39897,1.81097 -15.68275,4.586126 0,0 z"
         style="opacity:0.4;fill:#cd87de;fill-opacity:1;stroke:none;filter:url(#filter4138)" />
      <path
         inkscape:connector-curvature="0"
         id="path4142"
         d="M -21.533257,299.98903 C 52.294438,277.27929 62.107153,160.8188 147.3934,164.26387 c 84.79343,3.72322 82.20986,89.41669 64.07574,147.44471 11.77496,65.84701 148.7091,-9.74109 103.92869,72.77207 -61.8996,57.80836 -131.4016,-25.24438 -192.89837,-42.15343 -49.557385,-15.28071 -150.212788,53.28174 -165.648381,-25.68494 -5.055936,-13.59757 33.4010302,-35.21219 21.615664,-16.65325 z"
         style="opacity:0.8;fill:#a443bc;fill-opacity:1;stroke:none;filter:url(#filter4156)" />
      <path
         style="opacity:0.3;fill:#ff80e5;stroke:none;filter:url(#filter4412)"
         d="m 219.8128,104.80847 c 134.32378,-43.724806 194.52597,81.25822 255.25521,92.22571 43.44284,-7.64958 214.56653,29.5319 88.91838,50.26117 C 451.12286,270.6432 359.80332,338.08187 244.05075,347.52092 141.74003,299.92727 50.382097,163.29681 219.8128,104.80847 z"
         id="path4396"
         inkscape:connector-curvature="0"
         sodipodi:nodetypes="ccccc" />
      <path
         sodipodi:nodetypes="ccccc"
         inkscape:connector-curvature="0"
         id="path4265"
         d="m -63.780572,-59.844571 619.446862,578.998861 158.208,31.744 -70.21715,-621.421719 z"
         style="opacity:0.2;fill:url(#linearGradient4419);fill-opacity:1;stroke:none" />
    </g>
  </g>
  <g
     inkscape:groupmode="layer"
     id="layer3"
     inkscape:label="Slider"
     style="display:inline">
    <rect
       style="opacity:0.4;color:#000000;fill:#000000;fill-opacity:1;fill-rule:nonzero;stroke:none;stroke-width:2;marker:none;visibility:visible;display:inline;overflow:visible;enable-background:accumulate"
       id="rect4160"
       width="512"
       height="104"
       x="0"
       y="372"
       ry="3"
       clip-path="none" />
    <path
       style="opacity:0.5;color:#000000;fill:url(#linearGradient3978);fill-opacity:1;stroke:none;stroke-width:4;marker:none;visibility:visible;display:inline;overflow:visible;enable-background:accumulate"
       d="m 61,420 290,0 c 2.77,0 5,2.23 5,5 0,2.77 -2.23,5 -5,5 l -290,0 c -2.77,0 -5,-2.23 -5,-5 0,-2.77 2.23,-5 5,-5 z"
       id="rect3970"
       inkscape:connector-curvature="0"
       sodipodi:nodetypes="sssssss" />
    <path
       style="opacity:0.2;color:#000000;fill:#ffffff;fill-opacity:1;stroke:none;stroke-width:4;marker:none;visibility:visible;display:inline;overflow:visible;enable-background:accumulate"
       d="M 56.03125,425.5 C 56.014241,425.66849 56,425.82687 56,426 c 0,2.77 2.23,5 5,5 l 290,0 c 2.77,0 5,-2.23 5,-5 0,-0.17313 -0.0142,-0.33151 -0.0312,-0.5 -0.25514,2.5274 -2.37188,4.5 -4.96875,4.5 l -290,0 c -2.596875,0 -4.713611,-1.9726 -4.96875,-4.5 z"
       id="rect4290"
       inkscape:connector-curvature="0"
       sodipodi:nodetypes="csssscssc" />
    <path
       style="opacity:0.4;color:#000000;fill:url(#linearGradient4288);fill-opacity:1;stroke:none;stroke-width:4;marker:none;visibility:visible;display:inline;overflow:visible;enable-background:accumulate"
       d="m 61,420 194.77008,0 c 2.77,0 5,2.23 5,5 0,2.77 -2.23,5 -5,5 L 61,430 c -2.77,0 -5,-2.23 -5,-5 0,-2.77 2.23,-5 5,-5 z"
       id="rect4286"
       inkscape:connector-curvature="0"
       sodipodi:nodetypes="sssssss" />
    <rect
       ry="5"
       y="420"
       x="56"
       height="10"
       width="156.49069"
       id="rect4017"
       style="color:#000000;fill:url(#linearGradient4027);fill-opacity:1;stroke:none;stroke-width:4;marker:none;visibility:visible;display:inline;overflow:visible;enable-background:accumulate" />
    <path
       d="m 221,425 a 9,9 0 1 1 -18,0 9,9 0 1 1 18,0 z"
       sodipodi:ry="9"
       sodipodi:rx="9"
       sodipodi:cy="425"
       sodipodi:cx="212"
       id="path4005"
       style="opacity:0.4;color:#000000;fill:#000000;fill-opacity:1;fill-rule:nonzero;stroke:none;stroke-width:4;marker:none;visibility:visible;display:inline;overflow:visible;filter:url(#filter4013);enable-background:accumulate"
       sodipodi:type="arc"
       transform="matrix(1.1111111,0,0,1.1111111,-23.555556,-47.222222)" />
    <path
       sodipodi:type="arc"
       style="color:#000000;fill:url(#radialGradient3990);fill-opacity:1;fill-rule:nonzero;stroke:none;stroke-width:4;marker:none;visibility:visible;display:inline;overflow:visible;enable-background:accumulate"
       id="path3980"
       sodipodi:cx="212"
       sodipodi:cy="425"
       sodipodi:rx="9"
       sodipodi:ry="9"
       d="m 221,425 a 9,9 0 1 1 -18,0 9,9 0 1 1 18,0 z" />
    <path
       style="opacity:0.6;color:#000000;fill:#ffffff;fill-opacity:1;fill-rule:nonzero;stroke:none;stroke-width:4;marker:none;visibility:visible;display:inline;overflow:visible;enable-background:accumulate"
       d="m 212,416 c -4.97056,0 -9,4.02944 -9,9 0,0.17156 0.0218,0.33081 0.0312,0.5 0.26501,-4.73272 4.16975,-8.5 8.96875,-8.5 4.799,0 8.70374,3.76728 8.96875,8.5 0.009,-0.16919 0.0312,-0.32844 0.0312,-0.5 0,-4.97056 -4.02944,-9 -9,-9 z"
       id="path3996"
       inkscape:connector-curvature="0" />
    <g
       transform="translate(424,-602.3622)"
       id="layer1-8"
       inkscape:label="Layer 1">
      <g
         id="g4451"
         transform="translate(-789,604.3622)"
         style="display:inline">
        <rect
           style="fill:none;stroke:none"
           id="rect4453"
           width="48"
           height="48"
           x="789"
           y="400" />
        <path
           style="fill:#cccccc;fill-opacity:1;stroke:none"
           d="m 807,414 -5,5 0,10 5,5 z"
           id="path4455"
           inkscape:connector-curvature="0"
           sodipodi:nodetypes="ccccc" />
        <path
           style="fill:#cccccc;fill-opacity:1;stroke:none"
           d="M 799.1875,419 C 797.1561,419 797,420.13692 797,422.54166 l 0,2.5 c 0,2.40478 0.20584,3.95834 2.1875,3.95834 l 1.8125,0 0,-10 z"
           id="path4457"
           inkscape:connector-curvature="0"
           sodipodi:nodetypes="ssssccs" />
        <path
           inkscape:connector-curvature="0"
           id="rect4459"
           d="m 801,419 1,0 0,10 -1,0 z"
           style="opacity:0.25;color:#000000;fill:#cccccc;fill-opacity:1;fill-rule:nonzero;stroke:none;stroke-width:3;marker:none;visibility:visible;display:inline;overflow:visible;enable-background:accumulate" />
        <path
           inkscape:connector-curvature="0"
           id="path4461"
           d="M 812.65624,418.8125 810,421.78126 c 0.60892,0.54906 1,1.33428 1,2.21874 0,0.88448 -0.39108,1.66968 -1,2.21876 l 2.65624,2.96874 C 814.07926,427.90622 815,426.06562 815,424 c 0,-2.0656 -0.92074,-3.9062 -2.34376,-5.1875 z"
           style="color:#000000;fill:#cccccc;fill-opacity:1;stroke:none;stroke-width:4;marker:none;visibility:visible;display:inline;overflow:visible;enable-background:accumulate" />
        <path
           inkscape:connector-curvature="0"
           id="path4463"
           d="m 817.5625,413.78125 -2.71875,2.9375 C 816.78471,418.54282 818,421.12625 818,424 c 0,2.87375 -1.21529,5.45718 -3.15625,7.28125 l 2.71875,2.9375 C 820.29061,431.66415 822,428.03234 822,424 c 0,-4.03234 -1.70939,-7.66415 -4.4375,-10.21875 z"
           style="color:#000000;fill:#cccccc;fill-opacity:1;fill-rule:nonzero;stroke:none;stroke-width:3;marker:none;visibility:visible;display:inline;overflow:visible;enable-background:accumulate" />
        <path
           inkscape:connector-curvature="0"
           id="path4465"
           d="m 822.34375,408.6875 -2.71875,2.90625 C 822.93309,414.69539 825,419.1075 825,424 c 0,4.8925 -2.06691,9.30461 -5.375,12.40625 l 2.71875,2.90625 C 826.42953,435.48113 829,430.04312 829,424 c 0,-6.04312 -2.57047,-11.48113 -6.65625,-15.3125 z"
           style="opacity:0.5;color:#000000;fill:#cccccc;fill-opacity:1;fill-rule:nonzero;stroke:none;stroke-width:3;marker:none;visibility:visible;display:inline;overflow:visible;enable-background:accumulate" />
      </g>
    </g>
    <text
       xml:space="preserve"
       style="font-size:16px;font-style:normal;font-variant:normal;font-weight:normal;font-stretch:normal;text-align:start;line-height:125%;letter-spacing:0px;word-spacing:0px;writing-mode:lr-tb;text-anchor:start;fill:#cccccc;fill-opacity:1;stroke:none;font-family:Ubuntu;-inkscape-font-specification:Ubuntu"
       x="374.73108"
       y="430.552"
       id="text4342"
       sodipodi:linespacing="125%"><tspan
         sodipodi:role="line"
         id="tspan4344"
         x="374.73108"
         y="430.552">4:30</tspan></text>
    <rect
       style="opacity:0.1;color:#000000;fill:#ffffff;fill-opacity:1;fill-rule:nonzero;stroke:none;stroke-width:4;marker:none;visibility:visible;display:inline;overflow:visible;enable-background:accumulate"
       id="rect4346"
       width="1"
       height="104"
       x="418"
       y="372" />
    <rect
       y="372"
       x="417"
       height="104"
       width="1"
       id="rect4348"
       style="opacity:0.4;color:#000000;fill:#000000;fill-opacity:1;fill-rule:nonzero;stroke:none;stroke-width:4;marker:none;visibility:visible;display:inline;overflow:visible;enable-background:accumulate" />
    <rect
       clip-path="url(#clipPath4213)"
       ry="3"
       y="372"
       x="0"
       height="16.518803"
       width="512"
       id="rect4276"
       style="opacity:0.3;color:#000000;fill:url(#linearGradient4284);fill-opacity:1;fill-rule:nonzero;stroke:none;stroke-width:2;marker:none;visibility:visible;display:inline;overflow:visible;enable-background:accumulate" />
  </g>
  <g
     inkscape:groupmode="layer"
     id="layer4"
     inkscape:label="Symbol"
     style="display:inline"
     sodipodi:insensitive="true">
    <path
       inkscape:connector-curvature="0"
       style="font-size:medium;font-style:normal;font-variant:normal;font-weight:normal;font-stretch:normal;text-indent:0;text-align:start;text-decoration:none;line-height:normal;letter-spacing:normal;word-spacing:normal;text-transform:none;direction:ltr;block-progression:tb;writing-mode:lr-tb;text-anchor:start;baseline-shift:baseline;color:#000000;fill:#ff80e5;fill-opacity:1;stroke:none;stroke-width:9.50943375;marker:none;visibility:visible;display:inline;overflow:visible;filter:url(#filter4050-1);enable-background:accumulate;font-family:Sans;-inkscape-font-specification:Sans"
       d="m 256,102 c -62.32526,0 -113,50.67474 -113,113 0,62.32526 50.67474,113 113,113 62.32526,0 113,-50.67474 113,-113 0,-62.32526 -50.67474,-113 -113,-113 z m 0,14 c 54.7591,0 99,44.2409 99,99 0,54.75909 -44.2409,99 -99,99 -54.7591,0 -99,-44.24091 -99,-99 0,-54.7591 44.2409,-99 99,-99 z m -35.6875,35.875 c -0.43215,0.039 -0.79815,0.15032 -1.0625,0.3125 -8.45914,5.18983 -8.45914,124.56017 0,129.75 8.45914,5.18983 105.75,-54.49534 105.75,-64.875 0,-10.0553 -91.29094,-66.39531 -104.6875,-65.1875 z"
       id="path4041" />
    <path
       style="font-size:medium;font-style:normal;font-variant:normal;font-weight:normal;font-stretch:normal;text-indent:0;text-align:start;text-decoration:none;line-height:normal;letter-spacing:normal;word-spacing:normal;text-transform:none;direction:ltr;block-progression:tb;writing-mode:lr-tb;text-anchor:start;baseline-shift:baseline;opacity:0.5;color:#000000;fill:#000000;fill-opacity:1;stroke:none;stroke-width:9.50943375;marker:none;visibility:visible;display:inline;overflow:visible;filter:url(#filter4245);enable-background:accumulate;font-family:Sans;-inkscape-font-specification:Sans"
       d="m 256,102 c -62.32526,0 -113,50.67474 -113,113 0,62.32526 50.67474,113 113,113 62.32526,0 113,-50.67474 113,-113 0,-62.32526 -50.67474,-113 -113,-113 z m 0,14 c 54.7591,0 99,44.2409 99,99 0,54.75909 -44.2409,99 -99,99 -54.7591,0 -99,-44.24091 -99,-99 0,-54.7591 44.2409,-99 99,-99 z m -35.6875,35.875 c -0.43215,0.039 -0.79815,0.15032 -1.0625,0.3125 -8.45914,5.18983 -8.45914,124.56017 0,129.75 8.45914,5.18983 105.75,-54.49534 105.75,-64.875 0,-10.0553 -91.29094,-66.39531 -104.6875,-65.1875 z"
       id="path4240"
       inkscape:connector-curvature="0" />
    <path
       style="font-size:medium;font-style:normal;font-variant:normal;font-weight:normal;font-stretch:normal;text-indent:0;text-align:start;text-decoration:none;line-height:normal;letter-spacing:normal;word-spacing:normal;text-transform:none;direction:ltr;block-progression:tb;writing-mode:lr-tb;text-anchor:start;baseline-shift:baseline;color:#000000;fill:#ffffff;fill-opacity:1;stroke:none;stroke-width:9.50943375;marker:none;visibility:visible;display:inline;overflow:visible;enable-background:accumulate;font-family:Sans;-inkscape-font-specification:Sans"
       d="m 256,102 c -62.32526,0 -113,50.67474 -113,113 0,62.32526 50.67474,113 113,113 62.32526,0 113,-50.67474 113,-113 0,-62.32526 -50.67474,-113 -113,-113 z m 0,14 c 54.7591,0 99,44.2409 99,99 0,54.75909 -44.2409,99 -99,99 -54.7591,0 -99,-44.24091 -99,-99 0,-54.7591 44.2409,-99 99,-99 z m -35.6875,35.875 c -0.43215,0.039 -0.79815,0.15032 -1.0625,0.3125 -8.45914,5.18983 -8.45914,124.56017 0,129.75 8.45914,5.18983 105.75,-54.49534 105.75,-64.875 0,-10.0553 -91.29094,-66.39531 -104.6875,-65.1875 z"
       id="path4029"
       inkscape:connector-curvature="0" />
  </g>
  <g
     inkscape:label="Masks"
     inkscape:groupmode="layer"
     id="layer1"
     transform="translate(0,-576.36218)"
     style="display:none">
    <g
       transform="matrix(3.5555556,0,0,3.5522388,0,-2685.8796)"
       id="layer1-3"
       inkscape:label="Layer 1"
       style="fill:#000000;display:inline">
      <g
         style="fill:#000000"
         inkscape:label="Layer 1"
         id="layer1-2"
         transform="translate(0,9.99998)">
        <path
           sodipodi:nodetypes="sssssssss"
           inkscape:connector-curvature="0"
           id="path3774"
           d="m 46.702703,908.3622 50.594594,0 C 138.16216,908.3622 144,914.2 144,955.06487 l 0,40.59483 c 0,40.8647 -5.83784,46.7025 -46.702703,46.7025 l -50.594594,0 C 5.8378378,1042.3622 0,1036.5244 0,995.6597 L 0,955.06487 C 0,914.2 5.8378378,908.3622 46.702703,908.3622 z"
           style="fill:#000000;fill-opacity:1;stroke:none;display:inline" />
      </g>
    </g>
  </g>
</svg>
