<?xml version="1.0" encoding="UTF-8" standalone="no"?>
<svg style="enable-background:new" xmlns="http://www.w3.org/2000/svg" height="1024" width="1024" version="1.1" xmlns:xlink="http://www.w3.org/1999/xlink" viewBox="0 0 1024 1024">
 <defs>
  <linearGradient id="b" y2="375" gradientUnits="userSpaceOnUse" y1="138" gradientTransform="matrix(1.215 0 0 1.215 -57.35 -54.77)" x2="256" x1="256">
   <stop stop-opacity="0" offset="0"/>
   <stop offset=".5048"/>
   <stop stop-opacity="0" offset="1"/>
  </linearGradient>
  <linearGradient id="a" y2="135.3" gradientUnits="userSpaceOnUse" y1="375" gradientTransform="matrix(1.178 0 0 1.178 -48.3 -46.16)" x2="256" x1="256">
   <stop stop-color="#f1d7e9" offset="0"/>
   <stop stop-color="#f5f5f5" offset="1"/>
  </linearGradient>
 </defs>
 <g style="enable-background:new" transform="translate(256,256)">
  <path opacity=".2" style="color:#000000;enable-background:accumulate" d="m141.2 112.9v291.6s138.2-59.77 259-145.9c0-0.0264-0.014-0.0483-0.0307-0.0784-0.014-0.0319-0.0321-0.0635-0.0544-0.0955-0.0232-0.0316-0.0454-0.0648-0.0612-0.0955-0.0179-0.0318-0.0307-0.0639-0.0307-0.0921-127.5-88.8-258.8-145.3-258.8-145.3z" fill="url(#b)"/>
  <path opacity=".1" style="color:#000000;enable-background:accumulate" d="m144.3 116.5v282.8s134-57.98 251.3-141.5c0-0.0256-0.0136-0.0469-0.0298-0.076-0.0136-0.031-0.0311-0.0616-0.0528-0.0926-0.0225-0.0306-0.0441-0.0628-0.0594-0.0926-0.0173-0.0309-0.0298-0.062-0.0298-0.0893-123.7-86.2-251.1-140.9-251.1-140.9z"/>
  <path style="color:#000000;enable-background:accumulate" d="m144.3 114.1v282.8s134-57.98 251.3-141.5c0-0.0256-0.0136-0.0469-0.0298-0.076-0.0136-0.031-0.0311-0.0616-0.0528-0.0926-0.0225-0.0306-0.0441-0.0628-0.0594-0.0926-0.0173-0.0309-0.0298-0.062-0.0298-0.0893-123.7-86.1-251.1-140.9-251.1-140.9z" fill="url(#a)"/>
  <path style="color:#000000;enable-background:accumulate" d="m144.3 114.1v2.357s126.5 54.4 249.7 140c0.5081-0.3607 1.021-0.7133 1.528-1.075 0-0.0256-0.0137-0.0469-0.0299-0.076-0.0136-0.031-0.0312-0.061-0.0529-0.092-0.0225-0.0306-0.0445-0.0622-0.0599-0.092-0.0173-0.0309-0.0299-0.0625-0.0299-0.0898-123.6-86.1-251-140.9-251-140.9z" fill="#fff"/>
 </g>
</svg>
